<?xml version="1.0" standalone="no"?>
<!DOCTYPE svg PUBLIC "-//W3C//DTD SVG 20010904//EN"
 "http://www.w3.org/TR/2001/REC-SVG-20010904/DTD/svg10.dtd">
<svg version="1.0" xmlns="http://www.w3.org/2000/svg"
 width="2500.000000pt" height="2500.000000pt" viewBox="0 0 2500.000000 2500.000000"
 preserveAspectRatio="xMidYMid meet">
<metadata>
Created by potrace 1.14, written by Peter Selinger 2001-2017
</metadata>
<g transform="translate(0.000000,2500.000000) scale(0.100000,-0.100000)"
fill="#000000" stroke="none">
<path d="M4469 24996 c-2 -2 -47 -6 -99 -10 -52 -3 -111 -8 -130 -11 -19 -2
-55 -7 -80 -10 -104 -13 -130 -17 -240 -36 -63 -11 -155 -29 -205 -41 -49 -11
-99 -21 -110 -24 -11 -2 -83 -22 -160 -44 -173 -51 -157 -46 -175 -53 -8 -3
-42 -14 -75 -25 -182 -61 -389 -149 -580 -246 -190 -97 -242 -126 -282 -154
-17 -12 -34 -22 -37 -22 -6 0 -216 -133 -241 -152 -5 -5 -66 -50 -135 -100
-69 -51 -134 -100 -145 -109 -192 -160 -246 -210 -401 -366 -222 -222 -436
-486 -599 -738 -43 -66 -86 -132 -96 -147 -11 -15 -19 -29 -19 -31 0 -2 -23
-44 -51 -93 -49 -84 -184 -354 -221 -439 -78 -181 -175 -461 -225 -645 -22
-80 -65 -267 -77 -330 -3 -19 -8 -46 -11 -60 -5 -26 -39 -261 -49 -337 -3 -23
-9 -86 -13 -140 -11 -129 -10 -16175 0 -16278 14 -140 17 -169 22 -205 3 -19
8 -53 11 -75 10 -77 37 -230 50 -290 4 -16 8 -39 10 -50 6 -52 87 -346 132
-480 206 -623 533 -1184 987 -1694 175 -197 458 -454 690 -626 614 -457 1369
-774 2100 -880 22 -3 67 -10 100 -15 70 -11 126 -17 256 -27 126 -11 16125
-10 16262 0 59 5 115 10 125 11 9 2 46 7 82 11 36 4 72 9 80 10 8 2 35 6 60 9
25 3 55 8 66 10 12 2 37 7 55 10 19 3 68 12 109 21 41 9 86 19 100 21 119 23
495 135 615 184 337 137 545 237 770 373 1087 656 1866 1710 2171 2937 3 14
41 190 50 235 8 38 24 130 29 170 4 22 8 51 10 65 4 25 11 76 20 155 2 22 8
83 12 135 11 128 10 16161 0 16275 -5 50 -10 104 -12 120 -2 17 -7 53 -10 80
-18 150 -44 298 -90 505 -18 82 -117 424 -134 465 -5 11 -37 92 -71 180 -67
173 -203 459 -295 620 -150 261 -369 564 -585 809 -82 93 -315 321 -421 412
-57 49 -106 92 -109 95 -3 3 -63 50 -133 103 -534 404 -1137 689 -1777 840
-135 31 -200 45 -300 60 -19 3 -44 7 -55 10 -49 9 -152 23 -240 31 -38 4 -86
10 -105 13 -37 6 -16174 15 -16181 8z"/>
</g>
</svg>
